<?xml version="1.0" encoding="UTF-8"?>
<svg width="100%" height="40px" viewBox="0 0 105 60" version="1.1" xmlns="http://www.w3.org/2000/svg" xmlns:xlink="http://www.w3.org/1999/xlink">
    <!-- Generator: Sketch 53.2 (72643) - https://sketchapp.com -->
    <title>logo</title>
    <desc>Created with Sketch.</desc>
    <g id="Page-1" stroke="none" stroke-width="1" fill="none" fill-rule="evenodd">
        <g id="Group" fill="#FFC602">
            <path d="M62.6335785,55.6917332 C34.1894859,64.241738 6.59403539,59.6703055 0.997414536,45.4811531 C-4.59920632,31.2920006 13.922329,12.8582715 42.3664215,4.30826676 C70.8105141,-4.24173799 98.4059646,0.32969446 104.002585,14.5188469 C109.599206,28.7079994 91.077671,47.1417285 62.6335785,55.6917332 Z M61.997302,54.3710004 C87.759523,46.627139 104.33382,29.4220472 99.0170299,15.9423523 C93.7002401,2.46265749 68.5057239,-2.1871542 42.7435029,5.55670725 C16.981282,13.3005687 0.40698528,30.5056605 5.72377509,43.9853553 C11.0405649,57.4650502 36.2350811,62.1148619 61.997302,54.3710004 Z M30.006,20.008 L33.73,20.008 L41.43,40 L37.678,40 L35.802,34.708 L27.822,34.708 L25.946,40 L22.334,40 L30.006,20.008 Z M28.774,32.048 L34.878,32.048 L31.882,23.452 L31.798,23.452 L28.774,32.048 Z M39.33,20.008 L42.97,20.008 L47.982,35.828 L48.038,35.828 L53.162,20.008 L56.718,20.008 L49.886,40 L45.994,40 L39.33,20.008 Z M58.65,20.008 L63.578,20.008 L69.094,35.66 L69.15,35.66 L74.526,20.008 L79.398,20.008 L79.398,40 L76.066,40 L76.066,24.572 L76.01,24.572 L70.466,40 L67.582,40 L62.038,24.572 L61.982,24.572 L61.982,40 L58.65,40 L58.65,20.008 Z" id="Combined-Shape"></path>
        </g>
    </g>
</svg>